<?xml version="1.0" standalone="no"?>
<!DOCTYPE svg PUBLIC "-//W3C//DTD SVG 20010904//EN"
 "http://www.w3.org/TR/2001/REC-SVG-20010904/DTD/svg10.dtd">
<svg version="1.0" xmlns="http://www.w3.org/2000/svg"
 width="453.000000pt" height="453.000000pt" viewBox="0 0 453.000000 453.000000"
 preserveAspectRatio="xMidYMid meet">
<metadata>
Created by potrace 1.14, written by Peter Selinger 2001-2017
</metadata>
<g transform="translate(0.000000,453.000000) scale(0.100000,-0.100000)"
fill="#000000" stroke="none">
<path d="M2249 4346 c-2 -3 -62 -6 -133 -7 -145 -3 -263 -16 -396 -44 -158
-33 -172 -38 -167 -57 3 -10 2 -20 -2 -23 -4 -2 -88 -6 -187 -9 -99 -3 -211
-12 -248 -20 -72 -15 -95 -26 -55 -26 13 -1 49 -14 79 -30 30 -17 60 -30 67
-30 6 0 14 -4 17 -9 9 -13 -193 -74 -356 -108 -15 -3 -30 -14 -34 -25 -5 -16
-8 -17 -21 -6 -15 12 -15 10 -4 -10 7 -12 15 -21 19 -18 4 2 8 -4 8 -14 0 -28
-14 -30 -81 -9 -43 13 -77 33 -118 69 -31 29 -55 46 -52 38 2 -7 6 -24 9 -38
7 -43 33 -94 65 -127 35 -39 61 -74 61 -85 0 -5 -13 -8 -29 -8 -37 0 -90 36
-171 116 l-66 64 2 -58 c2 -69 24 -116 90 -199 78 -97 174 -175 289 -237 61
-33 64 -38 53 -91 -9 -46 -21 -61 -140 -181 -72 -72 -130 -135 -129 -140 1 -5
29 -9 64 -9 56 0 62 -2 59 -20 -5 -29 -82 -145 -97 -145 -14 0 -85 -67 -85
-80 0 -10 46 -14 103 -10 l27 2 -25 -59 c-14 -32 -45 -87 -69 -123 -84 -127
-88 -140 -46 -140 44 0 49 -8 36 -64 -27 -116 3 -352 69 -536 47 -134 132
-290 195 -363 l60 -68 0 -82 c0 -117 36 -308 76 -403 25 -60 98 -168 141 -209
21 -20 96 -64 166 -98 l128 -62 -51 -30 c-27 -16 -50 -33 -50 -37 0 -4 -5 -8
-10 -8 -6 0 -23 -9 -38 -20 -24 -18 -47 -21 -157 -25 -273 -9 -435 -57 -566
-167 -70 -59 -168 -207 -169 -255 0 -10 140 -13 669 -13 720 0 686 -2 676 49
-4 22 10 37 19 22 4 -5 2 -12 -3 -16 -7 -4 -6 -14 0 -29 10 -21 18 -23 88 -25
64 -2 80 1 98 18 l22 21 6 -21 c7 -20 12 -21 149 -15 78 2 148 7 157 11 10 4
14 18 12 48 -2 45 2 36 12 -25 l6 -38 519 0 c315 0 520 4 520 9 0 5 8 12 18
15 17 6 29 15 136 109 98 85 198 191 319 337 38 46 43 57 33 73 -8 15 -8 21 2
24 9 4 10 9 2 17 -7 10 -1 21 23 42 63 57 88 72 130 79 58 10 136 65 174 122
44 68 49 88 22 107 -12 8 -26 13 -31 10 -4 -3 -8 9 -8 25 0 32 -30 71 -54 71
-8 0 -16 16 -20 40 -6 38 -8 40 -41 40 -31 0 -34 2 -26 18 12 22 63 74 127
132 66 59 80 85 63 116 -29 55 -121 17 -211 -88 -50 -58 -157 -168 -164 -168
-2 0 -10 15 -17 33 -8 18 -36 52 -62 75 -38 33 -56 42 -85 42 -71 0 -77 -45
-15 -115 44 -49 51 -75 36 -128 -14 -47 -86 -193 -107 -218 -8 -9 -11 -19 -7
-23 4 -4 0 -4 -10 0 -9 3 -15 9 -13 13 2 3 -7 11 -20 18 -22 10 -26 8 -38 -15
-26 -51 -104 -142 -146 -173 -64 -47 -167 -95 -243 -113 -37 -10 -84 -23 -105
-30 -36 -13 -139 -34 -278 -57 -69 -11 -72 -11 -112 15 -23 14 -46 26 -51 26
-5 0 -14 6 -20 14 -9 11 10 23 101 64 62 28 138 60 168 73 148 61 261 168 329
313 31 66 110 335 123 421 2 11 17 26 33 34 83 38 135 130 170 300 24 121 36
358 20 434 -4 21 7 53 46 130 l51 102 -7 75 c-15 153 -12 196 14 224 23 24 25
35 25 124 1 87 4 103 31 155 21 43 40 65 71 83 103 60 153 198 127 344 -20
111 -42 165 -116 285 -47 75 -127 178 -172 218 -37 33 -179 124 -253 161 -39
20 -96 51 -125 70 -216 138 -530 229 -815 235 -47 1 -89 4 -92 6 -4 3 -9 3
-11 1z m-1348 -396 c16 0 17 -3 8 -13 -15 -15 -48 -17 -46 -2 1 5 -4 9 -11 7
-8 -1 -11 2 -7 8 4 6 14 9 22 6 8 -3 23 -6 34 -6z m1205 -3783 c21 -34 42 -65
47 -68 5 -4 8 -12 5 -19 -3 -10 -108 139 -108 155 0 16 22 -11 56 -68z m189
13 c-3 -5 -12 -10 -18 -10 -7 0 -6 4 3 10 19 12 23 12 15 0z m-489 -107 c26
-25 23 -29 -8 -12 -25 14 -88 80 -88 93 0 9 21 -9 96 -81z"/>
</g>
</svg>
